<svg width="137" height="53" viewBox="0 0 137 53" fill="none" xmlns="http://www.w3.org/2000/svg">
<path d="M60.0982 21L58.9712 17.757H52.1172L50.9902 21H48.1152L53.9572 4.9H57.1312L62.9502 21H60.0982ZM52.9912 15.273H58.0972L55.5442 8.005L52.9912 15.273Z" fill="white"/>
<path d="M71.0065 4.9C73.2145 4.9 75.0469 5.67433 76.5035 7.223C77.9755 8.77167 78.7115 10.6807 78.7115 12.95C78.7115 15.204 77.9755 17.113 76.5035 18.677C75.0469 20.2257 73.2145 21 71.0065 21H64.6815V4.9H71.0065ZM71.0065 18.47C72.5245 18.47 73.7589 17.9487 74.7095 16.906C75.6755 15.8633 76.1585 14.5447 76.1585 12.95C76.1585 11.34 75.6755 10.0213 74.7095 8.994C73.7589 7.95133 72.5245 7.43 71.0065 7.43H67.3265V18.47H71.0065Z" fill="white"/>
<path d="M83.7679 18.47H90.8979V21H81.1229V4.9H90.7829V7.43H83.7679V11.616H90.2079V14.123H83.7679V18.47Z" fill="white"/>
<path d="M105.164 21H102.151L98.6092 15.181L95.0672 21H92.0542L97.1142 12.72L92.3532 4.9H95.3432L98.6092 10.259L101.875 4.9H104.888L100.127 12.72L105.164 21Z" fill="white"/>
<path d="M57.2227 47.299C54.8 47.299 52.7914 46.5017 51.1967 44.907C49.602 43.297 48.8047 41.3113 48.8047 38.95C48.8047 36.5887 49.602 34.6107 51.1967 33.016C52.7914 31.406 54.8 30.601 57.2227 30.601C58.6794 30.601 60.021 30.946 61.2477 31.636C62.4897 32.326 63.4557 33.2613 64.1457 34.442L61.8457 35.776C61.4164 34.9787 60.7877 34.35 59.9597 33.89C59.147 33.4147 58.2347 33.177 57.2227 33.177C55.5054 33.177 54.11 33.7213 53.0367 34.81C51.9787 35.8987 51.4497 37.2787 51.4497 38.95C51.4497 40.6213 51.9787 42.0013 53.0367 43.09C54.11 44.1787 55.5054 44.723 57.2227 44.723C58.2347 44.723 59.1547 44.493 59.9827 44.033C60.8107 43.5577 61.4317 42.9213 61.8457 42.124L64.1457 43.435C63.471 44.6157 62.5127 45.5587 61.2707 46.264C60.044 46.954 58.6947 47.299 57.2227 47.299Z" fill="white"/>
<path d="M76.7188 47L75.5918 43.757H68.7378L67.6108 47H64.7358L70.5778 30.9H73.7518L79.5708 47H76.7188ZM69.6118 41.273H74.7178L72.1648 34.005L69.6118 41.273Z" fill="white"/>
<path d="M87.2361 30.9C88.7541 30.9 90.0191 31.406 91.0311 32.418C92.0584 33.43 92.5721 34.6873 92.5721 36.19C92.5721 37.6773 92.0584 38.9347 91.0311 39.962C90.0191 40.974 88.7541 41.48 87.2361 41.48H83.9471V47H81.3021V30.9H87.2361ZM87.2361 38.996C88.0181 38.996 88.6621 38.7353 89.1681 38.214C89.6741 37.6773 89.9271 37.0027 89.9271 36.19C89.9271 35.3773 89.6741 34.7103 89.1681 34.189C88.6621 33.6523 88.0181 33.384 87.2361 33.384H83.9471V38.996H87.2361Z" fill="white"/>
<path d="M94.8685 30.9H97.5135V47H94.8685V30.9Z" fill="white"/>
<path d="M111.196 30.9V33.43H106.665V47H104.02V33.43H99.4658V30.9H111.196Z" fill="white"/>
<path d="M122.494 47L121.367 43.757H114.513L113.386 47H110.511L116.353 30.9H119.527L125.346 47H122.494ZM115.387 41.273H120.493L117.94 34.005L115.387 41.273Z" fill="white"/>
<path d="M129.722 44.47H136.277V47H127.077V30.9H129.722V44.47Z" fill="white"/>
<path fill-rule="evenodd" clip-rule="evenodd" d="M1.01312 32.9999C0.453591 32.9999 -0.00368546 32.5449 0.0349554 31.9867C0.569803 24.2604 7.17565 18.1546 15.2461 18.1546H32V26.3114H15.2461C11.8047 26.3114 8.95441 28.7755 8.45466 31.9906C8.36871 32.5435 7.92337 32.9999 7.36384 32.9999H1.01312Z" fill="#535FE6"/>
<path fill-rule="evenodd" clip-rule="evenodd" d="M0 31.6903C0 20.3886 9.37624 11.2267 20.9424 11.2267H32V19.4121H20.9424C14.0027 19.4121 8.37696 24.9092 8.37696 31.6903V31.9868C8.37696 32.5463 7.92337 32.9999 7.36384 32.9999H1.01312C0.453591 32.9999 0 32.5463 0 31.9868V31.6903Z" fill="#4452EE"/>
<path fill-rule="evenodd" clip-rule="evenodd" d="M0 30.3046C0 18.675 9.37624 9.24736 20.9424 9.24736H32V17.6703H20.9424C14.0027 17.6703 8.37696 23.3268 8.37696 30.3046V31.9868C8.37696 32.5463 7.92337 32.9999 7.36384 32.9999H1.01312C0.453591 32.9999 0 32.5463 0 31.9868V30.3046Z" fill="#1B1A1A"/>
<path fill-rule="evenodd" clip-rule="evenodd" d="M0 23.2681C0 11.8808 9.37624 2.64954 20.9424 2.64954H32V10.897H20.9424C14.0027 10.897 8.37696 16.4357 8.37696 23.2681V31.9869C8.37696 32.5465 7.92337 33.0001 7.36384 33.0001H1.01312C0.453591 33.0001 0 32.5465 0 31.9869V23.2681Z" fill="#0F828C"/>
<path fill-rule="evenodd" clip-rule="evenodd" d="M0 21.9424C0 10.3762 9.37624 1 20.9424 1H30.9869C31.5464 1 32 1.45359 32 2.01312V9.37696H20.9424C14.0027 9.37696 8.37696 15.0027 8.37696 21.9424V31.9869C8.37696 32.5464 7.92337 33 7.36384 33H1.01312C0.453591 33 0 32.5464 0 31.9869V21.9424Z" fill="#20C1CF"/>
<path fill-rule="evenodd" clip-rule="evenodd" d="M24.7651 33C24.2055 33 23.752 32.5464 23.752 31.9869V1H30.9863C31.5458 1 31.9994 1.45359 31.9994 2.01312V31.9869C31.9994 32.5464 31.5458 33 30.9863 33H24.7651Z" fill="#535FE6"/>
</svg>
